<?xml version="1.0" encoding="utf-8" standalone="no"?>
<!DOCTYPE svg PUBLIC "-//W3C//DTD SVG 1.1//EN"
  "http://www.w3.org/Graphics/SVG/1.1/DTD/svg11.dtd">
<svg xmlns:xlink="http://www.w3.org/1999/xlink" width="720pt" height="432pt" viewBox="0 0 720 432" xmlns="http://www.w3.org/2000/svg" version="1.1">
 <metadata>
  <rdf:RDF xmlns:dc="http://purl.org/dc/elements/1.1/" xmlns:cc="http://creativecommons.org/ns#" xmlns:rdf="http://www.w3.org/1999/02/22-rdf-syntax-ns#">
   <cc:Work>
    <dc:type rdf:resource="http://purl.org/dc/dcmitype/StillImage"/>
    <dc:date>2022-01-06T13:59:07.159582</dc:date>
    <dc:format>image/svg+xml</dc:format>
    <dc:creator>
     <cc:Agent>
      <dc:title>Matplotlib v3.5.1, https://matplotlib.org/</dc:title>
     </cc:Agent>
    </dc:creator>
   </cc:Work>
  </rdf:RDF>
 </metadata>
 <defs>
  <style type="text/css">*{stroke-linejoin: round; stroke-linecap: butt}</style>
 </defs>
 <g id="figure_1">
  <g id="patch_1">
   <path d="M 0 432 
L 720 432 
L 720 0 
L 0 0 
L 0 432 
z
" style="fill: none"/>
  </g>
  <g id="axes_1">
   <g id="patch_2">
    <path d="M 60.440625 340.487175 
L 709.2 340.487175 
L 709.2 30.08125 
L 60.440625 30.08125 
z
" style="fill: #ffffff"/>
   </g>
   <g id="axes_2">
    <g id="patch_3">
     <path d="M 60.440625 393.256182 
L 709.2 393.256182 
L 709.2 393.256182 
L 60.440625 393.256182 
z
" style="fill: #ffffff"/>
    </g>
    <g id="matplotlib.axis_1">
     <g id="xtick_1">
      <g id="line2d_1">
       <defs>
        <path id="mcb6938431e" d="M 0 0 
L 0 10 
" style="stroke: #000000; stroke-width: 0.8"/>
       </defs>
       <g>
        <use xlink:href="#mcb6938431e" x="86.920599" y="393.256182" style="stroke: #000000; stroke-width: 0.8"/>
       </g>
      </g>
      <g id="text_1">
       <!-- 2018 -->
       <g transform="translate(74.920599 414.951807)scale(0.12 -0.12)">
        <defs>
         <path id="STIXGeneral-Regular-32" d="M 3034 877 
L 2688 0 
L 186 0 
L 186 77 
L 1325 1286 
Q 1773 1754 1965 2144 
Q 2157 2534 2157 2950 
Q 2157 3379 1920 3616 
Q 1683 3853 1267 3853 
Q 922 3853 720 3673 
Q 518 3494 326 3021 
L 192 3053 
Q 301 3648 630 3987 
Q 960 4326 1523 4326 
Q 2054 4326 2380 4006 
Q 2707 3686 2707 3200 
Q 2707 2477 1888 1613 
L 832 486 
L 2330 486 
Q 2541 486 2665 569 
Q 2790 653 2944 915 
L 3034 877 
z
" transform="scale(0.015625)"/>
         <path id="STIXGeneral-Regular-30" d="M 3046 2112 
Q 3046 1683 2963 1302 
Q 2880 922 2717 602 
Q 2554 282 2266 96 
Q 1978 -90 1600 -90 
Q 1210 -90 915 108 
Q 621 307 461 640 
Q 301 973 227 1350 
Q 154 1728 154 2150 
Q 154 2746 301 3222 
Q 448 3699 790 4012 
Q 1133 4326 1626 4326 
Q 2253 4326 2649 3712 
Q 3046 3098 3046 2112 
z
M 2432 2080 
Q 2432 3091 2217 3625 
Q 2003 4160 1587 4160 
Q 1190 4160 979 3622 
Q 768 3085 768 2106 
Q 768 1120 979 598 
Q 1190 77 1600 77 
Q 2003 77 2217 598 
Q 2432 1120 2432 2080 
z
" transform="scale(0.015625)"/>
         <path id="STIXGeneral-Regular-31" d="M 2522 0 
L 755 0 
L 755 96 
Q 1107 115 1235 227 
Q 1363 339 1363 608 
L 1363 3482 
Q 1363 3795 1171 3795 
Q 1082 3795 883 3718 
L 710 3654 
L 710 3744 
L 1856 4326 
L 1914 4307 
L 1914 486 
Q 1914 275 2042 185 
Q 2170 96 2522 96 
L 2522 0 
z
" transform="scale(0.015625)"/>
         <path id="STIXGeneral-Regular-38" d="M 2848 992 
Q 2848 499 2505 204 
Q 2163 -90 1587 -90 
Q 1050 -90 704 204 
Q 358 499 358 954 
Q 358 1293 524 1533 
Q 691 1773 1190 2125 
Q 710 2522 553 2765 
Q 397 3008 397 3328 
Q 397 3782 745 4054 
Q 1094 4326 1638 4326 
Q 2106 4326 2410 4060 
Q 2714 3795 2714 3411 
Q 2714 3059 2531 2848 
Q 2349 2637 1856 2374 
Q 2432 1990 2640 1689 
Q 2848 1389 2848 992 
z
M 2272 3411 
Q 2272 3744 2086 3945 
Q 1901 4147 1574 4147 
Q 1248 4147 1059 3977 
Q 870 3808 870 3513 
Q 870 3219 1059 2979 
Q 1248 2739 1670 2490 
Q 1997 2682 2134 2896 
Q 2272 3110 2272 3411 
z
M 1734 1741 
L 1357 1997 
Q 1075 1766 960 1545 
Q 845 1325 845 1011 
Q 845 576 1065 333 
Q 1286 90 1658 90 
Q 1971 90 2166 285 
Q 2362 480 2362 794 
Q 2362 1082 2214 1299 
Q 2067 1517 1734 1741 
z
" transform="scale(0.015625)"/>
        </defs>
        <use xlink:href="#STIXGeneral-Regular-32"/>
        <use xlink:href="#STIXGeneral-Regular-30" x="49.999985"/>
        <use xlink:href="#STIXGeneral-Regular-31" x="99.999969"/>
        <use xlink:href="#STIXGeneral-Regular-38" x="149.999954"/>
       </g>
      </g>
     </g>
     <g id="xtick_2">
      <g id="line2d_2">
       <g>
        <use xlink:href="#mcb6938431e" x="404.680293" y="393.256182" style="stroke: #000000; stroke-width: 0.8"/>
       </g>
      </g>
      <g id="text_2">
       <!-- 2019 -->
       <g transform="translate(392.680293 414.951807)scale(0.12 -0.12)">
        <defs>
         <path id="STIXGeneral-Regular-39" d="M 378 -141 
L 358 -13 
Q 1094 115 1603 608 
Q 2112 1101 2304 1882 
Q 1933 1517 1344 1517 
Q 826 1517 509 1875 
Q 192 2234 192 2816 
Q 192 3462 573 3894 
Q 954 4326 1523 4326 
Q 2131 4326 2528 3840 
Q 2938 3328 2938 2522 
Q 2938 1958 2742 1462 
Q 2547 966 2170 621 
Q 1773 262 1395 105 
Q 1018 -51 378 -141 
z
M 2317 2272 
L 2317 2522 
Q 2317 4147 1472 4147 
Q 1171 4147 1005 3930 
Q 909 3802 845 3546 
Q 781 3290 781 3034 
Q 781 2464 995 2128 
Q 1210 1792 1568 1792 
Q 1824 1792 2070 1917 
Q 2317 2042 2317 2272 
z
" transform="scale(0.015625)"/>
        </defs>
        <use xlink:href="#STIXGeneral-Regular-32"/>
        <use xlink:href="#STIXGeneral-Regular-30" x="49.999985"/>
        <use xlink:href="#STIXGeneral-Regular-31" x="99.999969"/>
        <use xlink:href="#STIXGeneral-Regular-39" x="149.999954"/>
       </g>
      </g>
     </g>
    </g>
    <g id="matplotlib.axis_2"/>
    <g id="patch_4">
     <path d="M 60.440625 393.256182 
L 709.2 393.256182 
" style="fill: none; stroke: #000000; stroke-width: 0.8; stroke-linejoin: miter; stroke-linecap: square"/>
    </g>
   </g>
   <g id="matplotlib.axis_3">
    <g id="xtick_3">
     <g id="line2d_3">
      <defs>
       <path id="m7e7f12cadf" d="M 0 0 
L 0 3.5 
" style="stroke: #000000; stroke-width: 0.8"/>
      </defs>
      <g>
       <use xlink:href="#m7e7f12cadf" x="86.920599" y="340.487175" style="stroke: #000000; stroke-width: 0.8"/>
      </g>
     </g>
     <g id="text_3">
      <!-- janvier -->
      <g transform="translate(71.147778 374.951815)rotate(-60)scale(0.1 -0.1)">
       <defs>
        <path id="STIXGeneral-Regular-6a" d="M 1242 4045 
Q 1242 3904 1146 3811 
Q 1050 3718 909 3718 
Q 774 3718 681 3811 
Q 589 3904 589 4045 
Q 589 4179 685 4275 
Q 781 4371 915 4371 
Q 1050 4371 1146 4275 
Q 1242 4179 1242 4045 
z
M 1235 2925 
L 1235 0 
Q 1235 -685 956 -1040 
Q 678 -1395 147 -1395 
Q -115 -1395 -281 -1296 
Q -448 -1197 -448 -1043 
Q -448 -941 -371 -867 
Q -294 -794 -186 -794 
Q -38 -794 122 -998 
Q 269 -1178 390 -1178 
Q 538 -1178 608 -1062 
Q 698 -902 698 -288 
L 698 2138 
Q 698 2522 493 2522 
Q 339 2522 237 2502 
L 205 2496 
L 205 2598 
Q 717 2758 1203 2944 
L 1235 2925 
z
" transform="scale(0.015625)"/>
        <path id="STIXGeneral-Regular-61" d="M 2829 422 
L 2829 243 
Q 2586 -64 2253 -64 
Q 1888 -64 1843 403 
L 1837 403 
Q 1427 -64 909 -64 
Q 608 -64 422 112 
Q 237 288 237 602 
Q 237 1050 685 1350 
Q 992 1555 1837 1869 
L 1837 2214 
Q 1837 2502 1699 2646 
Q 1562 2790 1338 2790 
Q 1146 2790 1018 2697 
Q 890 2605 890 2477 
Q 890 2419 909 2348 
Q 928 2278 928 2208 
Q 928 2112 841 2029 
Q 755 1946 634 1946 
Q 525 1946 441 2029 
Q 358 2112 358 2240 
Q 358 2547 685 2752 
Q 986 2944 1421 2944 
Q 1939 2944 2176 2656 
Q 2291 2522 2323 2384 
Q 2355 2246 2355 1946 
L 2355 723 
Q 2355 301 2554 301 
Q 2682 301 2829 422 
z
M 1837 813 
L 1837 1715 
Q 1248 1510 1018 1293 
Q 800 1094 800 800 
Q 800 557 921 432 
Q 1043 307 1242 307 
Q 1453 307 1613 410 
Q 1747 506 1792 589 
Q 1837 672 1837 813 
z
" transform="scale(0.015625)"/>
        <path id="STIXGeneral-Regular-6e" d="M 3104 0 
L 1773 0 
L 1779 96 
Q 2016 115 2096 233 
Q 2176 352 2176 672 
L 2176 1946 
Q 2176 2592 1709 2592 
Q 1549 2592 1408 2515 
Q 1267 2438 1050 2227 
L 1050 461 
Q 1050 269 1136 192 
Q 1222 115 1466 96 
L 1466 0 
L 115 0 
L 115 96 
Q 358 115 435 214 
Q 512 314 512 602 
L 512 2157 
Q 512 2394 467 2483 
Q 422 2573 288 2573 
Q 160 2573 102 2547 
L 102 2656 
Q 550 2784 979 2944 
L 1030 2925 
L 1030 2426 
L 1037 2426 
Q 1491 2944 1958 2944 
Q 2323 2944 2518 2688 
Q 2714 2432 2714 1958 
L 2714 544 
Q 2714 288 2790 205 
Q 2867 122 3104 96 
L 3104 0 
z
" transform="scale(0.015625)"/>
        <path id="STIXGeneral-Regular-76" d="M 3053 2880 
L 3053 2784 
Q 2906 2771 2835 2688 
Q 2765 2605 2637 2285 
L 1818 230 
Q 1690 -90 1638 -90 
Q 1587 -90 1523 77 
Q 1510 96 1497 141 
Q 1485 186 1472 211 
L 704 2048 
Q 499 2534 403 2652 
Q 307 2771 122 2784 
L 122 2880 
L 1376 2880 
L 1376 2784 
Q 1210 2771 1146 2732 
Q 1082 2694 1082 2611 
Q 1082 2509 1139 2368 
L 1792 730 
L 2426 2387 
Q 2464 2483 2464 2579 
Q 2464 2758 2163 2784 
L 2163 2880 
L 3053 2880 
z
" transform="scale(0.015625)"/>
        <path id="STIXGeneral-Regular-69" d="M 1152 4045 
Q 1152 3904 1056 3811 
Q 960 3718 819 3718 
Q 685 3718 592 3811 
Q 499 3904 499 4045 
Q 499 4179 595 4275 
Q 691 4371 826 4371 
Q 966 4371 1059 4275 
Q 1152 4179 1152 4045 
z
M 1619 0 
L 102 0 
L 102 96 
Q 435 115 521 211 
Q 608 307 608 666 
L 608 2118 
Q 608 2342 563 2432 
Q 518 2522 397 2522 
Q 243 2522 128 2490 
L 128 2592 
L 1120 2944 
L 1146 2918 
L 1146 672 
Q 1146 314 1226 218 
Q 1306 122 1619 96 
L 1619 0 
z
" transform="scale(0.015625)"/>
        <path id="STIXGeneral-Regular-65" d="M 2611 1050 
L 2714 1005 
Q 2330 -64 1376 -64 
Q 813 -64 486 329 
Q 160 723 160 1389 
Q 160 2074 525 2509 
Q 890 2944 1485 2944 
Q 2061 2944 2374 2502 
Q 2560 2246 2592 1773 
L 621 1773 
Q 646 1370 700 1158 
Q 755 947 915 730 
Q 1184 378 1626 378 
Q 1939 378 2153 531 
Q 2368 685 2611 1050 
z
M 634 1978 
L 1939 1978 
Q 1882 2381 1750 2547 
Q 1619 2714 1312 2714 
Q 1043 2714 864 2525 
Q 685 2336 634 1978 
z
" transform="scale(0.015625)"/>
        <path id="STIXGeneral-Regular-72" d="M 1024 2931 
L 1024 2342 
Q 1267 2688 1430 2816 
Q 1594 2944 1792 2944 
Q 1958 2944 2051 2854 
Q 2144 2765 2144 2605 
Q 2144 2470 2077 2393 
Q 2010 2317 1894 2317 
Q 1773 2317 1638 2445 
Q 1536 2541 1472 2541 
Q 1338 2541 1181 2355 
Q 1024 2170 1024 2016 
L 1024 576 
Q 1024 301 1133 205 
Q 1242 109 1568 96 
L 1568 0 
L 32 0 
L 32 96 
Q 339 154 412 224 
Q 486 294 486 538 
L 486 2138 
Q 486 2349 438 2435 
Q 390 2522 269 2522 
Q 166 2522 45 2496 
L 45 2598 
Q 448 2726 992 2944 
L 1024 2931 
z
" transform="scale(0.015625)"/>
       </defs>
       <use xlink:href="#STIXGeneral-Regular-6a"/>
       <use xlink:href="#STIXGeneral-Regular-61" x="27.799988"/>
       <use xlink:href="#STIXGeneral-Regular-6e" x="72.199982"/>
       <use xlink:href="#STIXGeneral-Regular-76" x="122.199966"/>
       <use xlink:href="#STIXGeneral-Regular-69" x="172.199951"/>
       <use xlink:href="#STIXGeneral-Regular-65" x="199.999939"/>
       <use xlink:href="#STIXGeneral-Regular-72" x="244.399933"/>
      </g>
     </g>
    </g>
    <g id="xtick_4">
     <g id="line2d_4">
      <g>
       <use xlink:href="#m7e7f12cadf" x="113.400574" y="340.487175" style="stroke: #000000; stroke-width: 0.8"/>
      </g>
     </g>
     <g id="text_4">
      <!-- février -->
      <g transform="translate(98.196028 373.981596)rotate(-60)scale(0.1 -0.1)">
       <defs>
        <path id="STIXGeneral-Regular-66" d="M 134 2880 
L 659 2880 
Q 666 3264 710 3478 
Q 755 3693 883 3910 
Q 1152 4371 1786 4371 
Q 2074 4371 2262 4259 
Q 2451 4147 2451 3974 
Q 2451 3866 2374 3789 
Q 2298 3712 2182 3712 
Q 2029 3712 1894 3942 
Q 1741 4192 1555 4192 
Q 1197 4192 1197 3622 
L 1197 2880 
L 1978 2880 
L 1978 2675 
L 1197 2675 
L 1197 666 
Q 1197 307 1299 208 
Q 1402 109 1792 96 
L 1792 0 
L 128 0 
L 128 96 
Q 474 115 566 214 
Q 659 314 659 666 
L 659 2675 
L 134 2675 
L 134 2880 
z
" transform="scale(0.015625)"/>
        <path id="STIXGeneral-Regular-e9" d="M 742 3245 
L 1683 4192 
Q 1830 4339 1952 4339 
Q 2176 4339 2176 4134 
Q 2176 3987 1984 3866 
L 998 3245 
L 742 3245 
z
M 2611 1050 
L 2714 1005 
Q 2330 -64 1376 -64 
Q 813 -64 486 329 
Q 160 723 160 1389 
Q 160 2074 525 2509 
Q 890 2944 1485 2944 
Q 2061 2944 2374 2502 
Q 2560 2246 2592 1773 
L 621 1773 
Q 646 1370 700 1158 
Q 755 947 915 730 
Q 1184 378 1626 378 
Q 1939 378 2153 531 
Q 2368 685 2611 1050 
z
M 634 1978 
L 1939 1978 
Q 1882 2381 1750 2547 
Q 1619 2714 1312 2714 
Q 1043 2714 864 2525 
Q 685 2336 634 1978 
z
" transform="scale(0.015625)"/>
       </defs>
       <use xlink:href="#STIXGeneral-Regular-66"/>
       <use xlink:href="#STIXGeneral-Regular-e9" x="33.299988"/>
       <use xlink:href="#STIXGeneral-Regular-76" x="77.699982"/>
       <use xlink:href="#STIXGeneral-Regular-72" x="127.699966"/>
       <use xlink:href="#STIXGeneral-Regular-69" x="160.999954"/>
       <use xlink:href="#STIXGeneral-Regular-65" x="188.799942"/>
       <use xlink:href="#STIXGeneral-Regular-72" x="233.199936"/>
      </g>
     </g>
    </g>
    <g id="xtick_5">
     <g id="line2d_5">
      <g>
       <use xlink:href="#m7e7f12cadf" x="139.880548" y="340.487175" style="stroke: #000000; stroke-width: 0.8"/>
      </g>
     </g>
     <g id="text_5">
      <!-- mars -->
      <g transform="translate(128.28069 367.738094)rotate(-60)scale(0.1 -0.1)">
       <defs>
        <path id="STIXGeneral-Regular-6d" d="M 4960 0 
L 3565 0 
L 3565 96 
Q 3834 122 3907 208 
Q 3981 294 3981 576 
L 3981 1894 
Q 3981 2278 3869 2444 
Q 3757 2611 3488 2611 
Q 3264 2611 3107 2521 
Q 2950 2432 2803 2221 
L 2803 608 
Q 2803 301 2896 201 
Q 2989 102 3264 96 
L 3264 0 
L 1830 0 
L 1830 96 
Q 2112 115 2189 188 
Q 2266 262 2266 550 
L 2266 1901 
Q 2266 2611 1850 2611 
Q 1670 2611 1468 2531 
Q 1267 2451 1171 2336 
Q 1088 2240 1088 2227 
L 1088 448 
Q 1088 243 1177 176 
Q 1267 109 1523 96 
L 1523 0 
L 102 0 
L 102 96 
Q 371 102 460 195 
Q 550 288 550 563 
L 550 2150 
Q 550 2387 499 2480 
Q 448 2573 326 2573 
Q 230 2573 122 2547 
L 122 2656 
Q 557 2778 1011 2944 
L 1062 2925 
L 1062 2451 
L 1075 2451 
Q 1363 2752 1584 2848 
Q 1805 2944 2054 2944 
Q 2560 2944 2733 2406 
Q 3232 2944 3776 2944 
Q 4518 2944 4518 1792 
L 4518 493 
Q 4518 282 4582 202 
Q 4646 122 4794 109 
L 4960 96 
L 4960 0 
z
" transform="scale(0.015625)"/>
        <path id="STIXGeneral-Regular-73" d="M 998 1926 
L 1664 1523 
Q 1984 1331 2105 1164 
Q 2227 998 2227 736 
Q 2227 416 1961 176 
Q 1696 -64 1331 -64 
Q 1030 -64 864 -6 
Q 691 51 570 51 
Q 461 51 416 -26 
L 333 -26 
L 333 979 
L 435 979 
Q 538 512 730 294 
Q 922 77 1248 77 
Q 1485 77 1632 211 
Q 1779 346 1779 550 
Q 1779 845 1440 1030 
L 1094 1222 
Q 326 1651 326 2150 
Q 326 2522 566 2730 
Q 806 2938 1210 2938 
Q 1491 2938 1638 2867 
Q 1754 2816 1818 2816 
Q 1862 2816 1920 2880 
L 1990 2880 
L 2022 2010 
L 1926 2010 
Q 1818 2445 1654 2621 
Q 1491 2797 1203 2797 
Q 986 2797 854 2688 
Q 723 2579 723 2362 
Q 723 2253 796 2128 
Q 870 2003 998 1926 
z
" transform="scale(0.015625)"/>
       </defs>
       <use xlink:href="#STIXGeneral-Regular-6d"/>
       <use xlink:href="#STIXGeneral-Regular-61" x="77.799988"/>
       <use xlink:href="#STIXGeneral-Regular-72" x="122.199982"/>
       <use xlink:href="#STIXGeneral-Regular-73" x="155.499969"/>
      </g>
     </g>
    </g>
    <g id="xtick_6">
     <g id="line2d_6">
      <g>
       <use xlink:href="#m7e7f12cadf" x="166.360523" y="340.487175" style="stroke: #000000; stroke-width: 0.8"/>
      </g>
     </g>
     <g id="text_6">
      <!-- avril -->
      <g transform="translate(155.316133 366.775994)rotate(-60)scale(0.1 -0.1)">
       <defs>
        <path id="STIXGeneral-Regular-6c" d="M 1645 0 
L 134 0 
L 134 96 
Q 435 122 531 221 
Q 627 320 627 589 
L 627 3590 
Q 627 3821 569 3910 
Q 512 4000 358 4000 
Q 224 4000 122 3987 
L 122 4090 
Q 730 4237 1133 4371 
L 1165 4346 
L 1165 557 
Q 1165 288 1254 201 
Q 1344 115 1645 96 
L 1645 0 
z
" transform="scale(0.015625)"/>
       </defs>
       <use xlink:href="#STIXGeneral-Regular-61"/>
       <use xlink:href="#STIXGeneral-Regular-76" x="44.399994"/>
       <use xlink:href="#STIXGeneral-Regular-72" x="94.399979"/>
       <use xlink:href="#STIXGeneral-Regular-69" x="127.699966"/>
       <use xlink:href="#STIXGeneral-Regular-6c" x="155.499954"/>
      </g>
     </g>
    </g>
    <g id="xtick_7">
     <g id="line2d_7">
      <g>
       <use xlink:href="#m7e7f12cadf" x="192.840497" y="340.487175" style="stroke: #000000; stroke-width: 0.8"/>
      </g>
     </g>
     <g id="text_7">
      <!-- mai -->
      <g transform="translate(183.460952 363.8924)rotate(-60)scale(0.1 -0.1)">
       <use xlink:href="#STIXGeneral-Regular-6d"/>
       <use xlink:href="#STIXGeneral-Regular-61" x="77.799988"/>
       <use xlink:href="#STIXGeneral-Regular-69" x="122.199982"/>
      </g>
     </g>
    </g>
    <g id="xtick_8">
     <g id="line2d_8">
      <g>
       <use xlink:href="#m7e7f12cadf" x="219.320472" y="340.487175" style="stroke: #000000; stroke-width: 0.8"/>
      </g>
     </g>
     <g id="text_8">
      <!-- juin -->
      <g transform="translate(209.65312 364.376833)rotate(-60)scale(0.1 -0.1)">
       <defs>
        <path id="STIXGeneral-Regular-75" d="M 3072 320 
L 3072 230 
Q 2573 96 2195 -58 
L 2163 -38 
L 2163 486 
L 2150 486 
Q 1747 -64 1235 -64 
Q 870 -64 662 160 
Q 454 384 454 755 
L 454 2362 
Q 454 2598 371 2688 
Q 288 2778 58 2790 
L 58 2880 
L 992 2880 
L 992 813 
Q 992 595 1123 451 
Q 1254 307 1446 307 
Q 1760 307 1984 506 
Q 2067 582 2099 649 
Q 2131 717 2131 877 
L 2131 2355 
Q 2131 2605 2041 2678 
Q 1952 2752 1658 2771 
L 1658 2880 
L 2669 2880 
L 2669 685 
Q 2669 461 2742 390 
Q 2816 320 3034 320 
L 3072 320 
z
" transform="scale(0.015625)"/>
       </defs>
       <use xlink:href="#STIXGeneral-Regular-6a"/>
       <use xlink:href="#STIXGeneral-Regular-75" x="27.799988"/>
       <use xlink:href="#STIXGeneral-Regular-69" x="77.799973"/>
       <use xlink:href="#STIXGeneral-Regular-6e" x="105.59996"/>
      </g>
     </g>
    </g>
    <g id="xtick_9">
     <g id="line2d_9">
      <g>
       <use xlink:href="#m7e7f12cadf" x="245.800446" y="340.487175" style="stroke: #000000; stroke-width: 0.8"/>
      </g>
     </g>
     <g id="text_9">
      <!-- juillet -->
      <g transform="translate(232.24325 371.11424)rotate(-60)scale(0.1 -0.1)">
       <defs>
        <path id="STIXGeneral-Regular-74" d="M 1702 493 
L 1786 422 
Q 1478 -64 1011 -64 
Q 448 -64 448 749 
L 448 2675 
L 109 2675 
Q 83 2694 83 2720 
Q 83 2771 192 2842 
Q 435 2982 813 3526 
Q 826 3546 874 3606 
Q 922 3667 941 3706 
Q 986 3706 986 3622 
L 986 2880 
L 1632 2880 
L 1632 2675 
L 986 2675 
L 986 845 
Q 986 538 1062 403 
Q 1139 269 1318 269 
Q 1510 269 1702 493 
z
" transform="scale(0.015625)"/>
       </defs>
       <use xlink:href="#STIXGeneral-Regular-6a"/>
       <use xlink:href="#STIXGeneral-Regular-75" x="27.799988"/>
       <use xlink:href="#STIXGeneral-Regular-69" x="77.799973"/>
       <use xlink:href="#STIXGeneral-Regular-6c" x="105.59996"/>
       <use xlink:href="#STIXGeneral-Regular-6c" x="133.399948"/>
       <use xlink:href="#STIXGeneral-Regular-65" x="161.199936"/>
       <use xlink:href="#STIXGeneral-Regular-74" x="205.59993"/>
      </g>
     </g>
    </g>
    <g id="xtick_10">
     <g id="line2d_10">
      <g>
       <use xlink:href="#m7e7f12cadf" x="272.280421" y="340.487175" style="stroke: #000000; stroke-width: 0.8"/>
      </g>
     </g>
     <g id="text_10">
      <!-- août -->
      <g transform="translate(261.790719 365.815247)rotate(-60)scale(0.1 -0.1)">
       <defs>
        <path id="STIXGeneral-Regular-6f" d="M 3008 1478 
Q 3008 806 2608 371 
Q 2208 -64 1568 -64 
Q 979 -64 582 368 
Q 186 800 186 1459 
Q 186 2125 582 2534 
Q 979 2944 1626 2944 
Q 2221 2944 2614 2537 
Q 3008 2131 3008 1478 
z
M 2432 1306 
Q 2432 2035 2112 2445 
Q 1856 2765 1504 2765 
Q 1171 2765 966 2493 
Q 762 2221 762 1747 
Q 762 928 1101 435 
Q 1318 115 1677 115 
Q 2029 115 2230 432 
Q 2432 749 2432 1306 
z
" transform="scale(0.015625)"/>
        <path id="STIXGeneral-Regular-fb" d="M 2566 3245 
L 2349 3245 
L 1568 3904 
L 794 3245 
L 576 3245 
L 1370 4314 
L 1766 4314 
L 2566 3245 
z
M 3072 320 
L 3072 230 
Q 2573 96 2195 -58 
L 2163 -38 
L 2163 486 
L 2150 486 
Q 1747 -64 1235 -64 
Q 870 -64 662 160 
Q 454 384 454 755 
L 454 2362 
Q 454 2598 371 2688 
Q 288 2778 58 2790 
L 58 2880 
L 992 2880 
L 992 813 
Q 992 595 1123 451 
Q 1254 307 1446 307 
Q 1760 307 1984 506 
Q 2067 582 2099 649 
Q 2131 717 2131 877 
L 2131 2355 
Q 2131 2605 2041 2678 
Q 1952 2752 1658 2771 
L 1658 2880 
L 2669 2880 
L 2669 685 
Q 2669 461 2742 390 
Q 2816 320 3034 320 
L 3072 320 
z
" transform="scale(0.015625)"/>
       </defs>
       <use xlink:href="#STIXGeneral-Regular-61"/>
       <use xlink:href="#STIXGeneral-Regular-6f" x="44.399994"/>
       <use xlink:href="#STIXGeneral-Regular-fb" x="94.399979"/>
       <use xlink:href="#STIXGeneral-Regular-74" x="144.399963"/>
      </g>
     </g>
    </g>
    <g id="xtick_11">
     <g id="line2d_11">
      <g>
       <use xlink:href="#m7e7f12cadf" x="298.760395" y="340.487175" style="stroke: #000000; stroke-width: 0.8"/>
      </g>
     </g>
     <g id="text_11">
      <!-- septembre -->
      <g transform="translate(276.330068 386.497016)rotate(-60)scale(0.1 -0.1)">
       <defs>
        <path id="STIXGeneral-Regular-70" d="M 1018 2931 
L 1018 2438 
Q 1421 2944 1939 2944 
Q 2406 2944 2707 2560 
Q 3008 2176 3008 1581 
Q 3008 883 2621 409 
Q 2234 -64 1664 -64 
Q 1466 -64 1328 -6 
Q 1190 51 1018 211 
L 1018 -794 
Q 1018 -1094 1120 -1180 
Q 1222 -1267 1581 -1274 
L 1581 -1389 
L 32 -1389 
L 32 -1280 
Q 314 -1254 397 -1171 
Q 480 -1088 480 -838 
L 480 2157 
Q 480 2381 429 2451 
Q 378 2522 218 2522 
Q 115 2522 58 2515 
L 58 2618 
Q 506 2752 979 2944 
L 1018 2931 
z
M 1018 2138 
L 1018 563 
Q 1018 422 1238 281 
Q 1459 141 1683 141 
Q 2029 141 2243 467 
Q 2458 794 2458 1325 
Q 2458 1888 2243 2224 
Q 2029 2560 1670 2560 
Q 1446 2560 1232 2419 
Q 1018 2278 1018 2138 
z
" transform="scale(0.015625)"/>
        <path id="STIXGeneral-Regular-62" d="M 979 4358 
L 979 2406 
Q 1082 2650 1315 2797 
Q 1549 2944 1843 2944 
Q 2349 2944 2672 2541 
Q 2995 2138 2995 1536 
Q 2995 832 2566 384 
Q 2138 -64 1498 -64 
Q 1107 -64 774 67 
Q 442 198 442 358 
L 442 3622 
Q 442 3859 384 3926 
Q 326 3994 128 3994 
Q 83 3994 19 3981 
L 19 4090 
L 211 4147 
Q 864 4346 947 4371 
L 979 4358 
z
M 979 2035 
L 979 474 
Q 979 326 1161 233 
Q 1344 141 1600 141 
Q 1978 141 2195 416 
Q 2432 710 2432 1261 
Q 2432 1888 2182 2240 
Q 1971 2541 1613 2541 
Q 1357 2541 1168 2390 
Q 979 2240 979 2035 
z
" transform="scale(0.015625)"/>
       </defs>
       <use xlink:href="#STIXGeneral-Regular-73"/>
       <use xlink:href="#STIXGeneral-Regular-65" x="38.899994"/>
       <use xlink:href="#STIXGeneral-Regular-70" x="83.299988"/>
       <use xlink:href="#STIXGeneral-Regular-74" x="133.299973"/>
       <use xlink:href="#STIXGeneral-Regular-65" x="161.09996"/>
       <use xlink:href="#STIXGeneral-Regular-6d" x="205.499954"/>
       <use xlink:href="#STIXGeneral-Regular-62" x="283.299942"/>
       <use xlink:href="#STIXGeneral-Regular-72" x="333.299927"/>
       <use xlink:href="#STIXGeneral-Regular-65" x="366.599915"/>
      </g>
     </g>
    </g>
    <g id="xtick_12">
     <g id="line2d_12">
      <g>
       <use xlink:href="#m7e7f12cadf" x="325.24037" y="340.487175" style="stroke: #000000; stroke-width: 0.8"/>
      </g>
     </g>
     <g id="text_12">
      <!-- octobre -->
      <g transform="translate(308.365512 376.874662)rotate(-60)scale(0.1 -0.1)">
       <defs>
        <path id="STIXGeneral-Regular-63" d="M 2547 998 
L 2637 941 
Q 2362 403 2112 205 
Q 1786 -64 1376 -64 
Q 845 -64 502 336 
Q 160 736 160 1357 
Q 160 2170 698 2618 
Q 1094 2944 1562 2944 
Q 1965 2944 2256 2749 
Q 2547 2554 2547 2285 
Q 2547 2176 2457 2096 
Q 2368 2016 2246 2016 
Q 2022 2016 1939 2310 
L 1901 2451 
Q 1850 2630 1773 2694 
Q 1696 2758 1523 2758 
Q 1133 2758 893 2451 
Q 653 2144 653 1645 
Q 653 1094 928 745 
Q 1203 397 1645 397 
Q 1920 397 2118 528 
Q 2317 659 2547 998 
z
" transform="scale(0.015625)"/>
       </defs>
       <use xlink:href="#STIXGeneral-Regular-6f"/>
       <use xlink:href="#STIXGeneral-Regular-63" x="49.999985"/>
       <use xlink:href="#STIXGeneral-Regular-74" x="94.399979"/>
       <use xlink:href="#STIXGeneral-Regular-6f" x="122.199966"/>
       <use xlink:href="#STIXGeneral-Regular-62" x="172.199951"/>
       <use xlink:href="#STIXGeneral-Regular-72" x="222.199936"/>
       <use xlink:href="#STIXGeneral-Regular-65" x="255.499924"/>
      </g>
     </g>
    </g>
    <g id="xtick_13">
     <g id="line2d_13">
      <g>
       <use xlink:href="#m7e7f12cadf" x="351.720344" y="340.487175" style="stroke: #000000; stroke-width: 0.8"/>
      </g>
     </g>
     <g id="text_13">
      <!-- novembre -->
      <g transform="translate(329.845486 385.534916)rotate(-60)scale(0.1 -0.1)">
       <use xlink:href="#STIXGeneral-Regular-6e"/>
       <use xlink:href="#STIXGeneral-Regular-6f" x="49.999985"/>
       <use xlink:href="#STIXGeneral-Regular-76" x="99.999969"/>
       <use xlink:href="#STIXGeneral-Regular-65" x="149.999954"/>
       <use xlink:href="#STIXGeneral-Regular-6d" x="194.399948"/>
       <use xlink:href="#STIXGeneral-Regular-62" x="272.199936"/>
       <use xlink:href="#STIXGeneral-Regular-72" x="322.199921"/>
       <use xlink:href="#STIXGeneral-Regular-65" x="355.499908"/>
      </g>
     </g>
    </g>
    <g id="xtick_14">
     <g id="line2d_14">
      <g>
       <use xlink:href="#m7e7f12cadf" x="378.200319" y="340.487175" style="stroke: #000000; stroke-width: 0.8"/>
      </g>
     </g>
     <g id="text_14">
      <!-- décembre -->
      <g transform="translate(356.884836 384.56605)rotate(-60)scale(0.1 -0.1)">
       <defs>
        <path id="STIXGeneral-Regular-64" d="M 3142 269 
L 2202 -64 
L 2176 -45 
L 2176 365 
Q 1869 -64 1357 -64 
Q 826 -64 499 317 
Q 173 698 173 1312 
Q 173 1990 563 2467 
Q 954 2944 1504 2944 
Q 1850 2944 2176 2669 
L 2176 3667 
Q 2176 3866 2118 3930 
Q 2061 3994 1882 3994 
Q 1792 3994 1741 3987 
L 1741 4090 
Q 2323 4243 2682 4371 
L 2714 4358 
L 2714 730 
Q 2714 506 2768 435 
Q 2822 365 2995 365 
Q 3034 365 3142 371 
L 3142 269 
z
M 2176 653 
L 2176 2125 
Q 2176 2381 1981 2573 
Q 1786 2765 1523 2765 
Q 1158 2765 940 2438 
Q 723 2112 723 1568 
Q 723 979 963 624 
Q 1203 269 1606 269 
Q 1907 269 2080 474 
Q 2176 582 2176 653 
z
" transform="scale(0.015625)"/>
       </defs>
       <use xlink:href="#STIXGeneral-Regular-64"/>
       <use xlink:href="#STIXGeneral-Regular-e9" x="49.999985"/>
       <use xlink:href="#STIXGeneral-Regular-63" x="94.399979"/>
       <use xlink:href="#STIXGeneral-Regular-65" x="138.799973"/>
       <use xlink:href="#STIXGeneral-Regular-6d" x="183.199966"/>
       <use xlink:href="#STIXGeneral-Regular-62" x="260.999954"/>
       <use xlink:href="#STIXGeneral-Regular-72" x="310.999939"/>
       <use xlink:href="#STIXGeneral-Regular-65" x="344.299927"/>
      </g>
     </g>
    </g>
    <g id="xtick_15">
     <g id="line2d_15">
      <g>
       <use xlink:href="#m7e7f12cadf" x="404.680293" y="340.487175" style="stroke: #000000; stroke-width: 0.8"/>
      </g>
     </g>
     <g id="text_15">
      <!-- janvier -->
      <g transform="translate(388.907472 374.951815)rotate(-60)scale(0.1 -0.1)">
       <use xlink:href="#STIXGeneral-Regular-6a"/>
       <use xlink:href="#STIXGeneral-Regular-61" x="27.799988"/>
       <use xlink:href="#STIXGeneral-Regular-6e" x="72.199982"/>
       <use xlink:href="#STIXGeneral-Regular-76" x="122.199966"/>
       <use xlink:href="#STIXGeneral-Regular-69" x="172.199951"/>
       <use xlink:href="#STIXGeneral-Regular-65" x="199.999939"/>
       <use xlink:href="#STIXGeneral-Regular-72" x="244.399933"/>
      </g>
     </g>
    </g>
    <g id="xtick_16">
     <g id="line2d_16">
      <g>
       <use xlink:href="#m7e7f12cadf" x="431.160268" y="340.487175" style="stroke: #000000; stroke-width: 0.8"/>
      </g>
     </g>
     <g id="text_16">
      <!-- février -->
      <g transform="translate(415.955722 373.981596)rotate(-60)scale(0.1 -0.1)">
       <use xlink:href="#STIXGeneral-Regular-66"/>
       <use xlink:href="#STIXGeneral-Regular-e9" x="33.299988"/>
       <use xlink:href="#STIXGeneral-Regular-76" x="77.699982"/>
       <use xlink:href="#STIXGeneral-Regular-72" x="127.699966"/>
       <use xlink:href="#STIXGeneral-Regular-69" x="160.999954"/>
       <use xlink:href="#STIXGeneral-Regular-65" x="188.799942"/>
       <use xlink:href="#STIXGeneral-Regular-72" x="233.199936"/>
      </g>
     </g>
    </g>
    <g id="xtick_17">
     <g id="line2d_17">
      <g>
       <use xlink:href="#m7e7f12cadf" x="457.640242" y="340.487175" style="stroke: #000000; stroke-width: 0.8"/>
      </g>
     </g>
     <g id="text_17">
      <!-- mars -->
      <g transform="translate(446.040384 367.738094)rotate(-60)scale(0.1 -0.1)">
       <use xlink:href="#STIXGeneral-Regular-6d"/>
       <use xlink:href="#STIXGeneral-Regular-61" x="77.799988"/>
       <use xlink:href="#STIXGeneral-Regular-72" x="122.199982"/>
       <use xlink:href="#STIXGeneral-Regular-73" x="155.499969"/>
      </g>
     </g>
    </g>
    <g id="xtick_18">
     <g id="line2d_18">
      <g>
       <use xlink:href="#m7e7f12cadf" x="484.120217" y="340.487175" style="stroke: #000000; stroke-width: 0.8"/>
      </g>
     </g>
     <g id="text_18">
      <!-- avril -->
      <g transform="translate(473.075827 366.775994)rotate(-60)scale(0.1 -0.1)">
       <use xlink:href="#STIXGeneral-Regular-61"/>
       <use xlink:href="#STIXGeneral-Regular-76" x="44.399994"/>
       <use xlink:href="#STIXGeneral-Regular-72" x="94.399979"/>
       <use xlink:href="#STIXGeneral-Regular-69" x="127.699966"/>
       <use xlink:href="#STIXGeneral-Regular-6c" x="155.499954"/>
      </g>
     </g>
    </g>
    <g id="xtick_19">
     <g id="line2d_19">
      <g>
       <use xlink:href="#m7e7f12cadf" x="510.600191" y="340.487175" style="stroke: #000000; stroke-width: 0.8"/>
      </g>
     </g>
     <g id="text_19">
      <!-- mai -->
      <g transform="translate(501.220646 363.8924)rotate(-60)scale(0.1 -0.1)">
       <use xlink:href="#STIXGeneral-Regular-6d"/>
       <use xlink:href="#STIXGeneral-Regular-61" x="77.799988"/>
       <use xlink:href="#STIXGeneral-Regular-69" x="122.199982"/>
      </g>
     </g>
    </g>
    <g id="xtick_20">
     <g id="line2d_20">
      <g>
       <use xlink:href="#m7e7f12cadf" x="537.080166" y="340.487175" style="stroke: #000000; stroke-width: 0.8"/>
      </g>
     </g>
     <g id="text_20">
      <!-- juin -->
      <g transform="translate(527.412814 364.376833)rotate(-60)scale(0.1 -0.1)">
       <use xlink:href="#STIXGeneral-Regular-6a"/>
       <use xlink:href="#STIXGeneral-Regular-75" x="27.799988"/>
       <use xlink:href="#STIXGeneral-Regular-69" x="77.799973"/>
       <use xlink:href="#STIXGeneral-Regular-6e" x="105.59996"/>
      </g>
     </g>
    </g>
    <g id="xtick_21">
     <g id="line2d_21">
      <g>
       <use xlink:href="#m7e7f12cadf" x="563.56014" y="340.487175" style="stroke: #000000; stroke-width: 0.8"/>
      </g>
     </g>
     <g id="text_21">
      <!-- juillet -->
      <g transform="translate(550.002944 371.11424)rotate(-60)scale(0.1 -0.1)">
       <use xlink:href="#STIXGeneral-Regular-6a"/>
       <use xlink:href="#STIXGeneral-Regular-75" x="27.799988"/>
       <use xlink:href="#STIXGeneral-Regular-69" x="77.799973"/>
       <use xlink:href="#STIXGeneral-Regular-6c" x="105.59996"/>
       <use xlink:href="#STIXGeneral-Regular-6c" x="133.399948"/>
       <use xlink:href="#STIXGeneral-Regular-65" x="161.199936"/>
       <use xlink:href="#STIXGeneral-Regular-74" x="205.59993"/>
      </g>
     </g>
    </g>
    <g id="xtick_22">
     <g id="line2d_22">
      <g>
       <use xlink:href="#m7e7f12cadf" x="590.040115" y="340.487175" style="stroke: #000000; stroke-width: 0.8"/>
      </g>
     </g>
     <g id="text_22">
      <!-- août -->
      <g transform="translate(579.550413 365.815247)rotate(-60)scale(0.1 -0.1)">
       <use xlink:href="#STIXGeneral-Regular-61"/>
       <use xlink:href="#STIXGeneral-Regular-6f" x="44.399994"/>
       <use xlink:href="#STIXGeneral-Regular-fb" x="94.399979"/>
       <use xlink:href="#STIXGeneral-Regular-74" x="144.399963"/>
      </g>
     </g>
    </g>
    <g id="xtick_23">
     <g id="line2d_23">
      <g>
       <use xlink:href="#m7e7f12cadf" x="616.520089" y="340.487175" style="stroke: #000000; stroke-width: 0.8"/>
      </g>
     </g>
     <g id="text_23">
      <!-- septembre -->
      <g transform="translate(594.089762 386.497016)rotate(-60)scale(0.1 -0.1)">
       <use xlink:href="#STIXGeneral-Regular-73"/>
       <use xlink:href="#STIXGeneral-Regular-65" x="38.899994"/>
       <use xlink:href="#STIXGeneral-Regular-70" x="83.299988"/>
       <use xlink:href="#STIXGeneral-Regular-74" x="133.299973"/>
       <use xlink:href="#STIXGeneral-Regular-65" x="161.09996"/>
       <use xlink:href="#STIXGeneral-Regular-6d" x="205.499954"/>
       <use xlink:href="#STIXGeneral-Regular-62" x="283.299942"/>
       <use xlink:href="#STIXGeneral-Regular-72" x="333.299927"/>
       <use xlink:href="#STIXGeneral-Regular-65" x="366.599915"/>
      </g>
     </g>
    </g>
    <g id="xtick_24">
     <g id="line2d_24">
      <g>
       <use xlink:href="#m7e7f12cadf" x="643.000064" y="340.487175" style="stroke: #000000; stroke-width: 0.8"/>
      </g>
     </g>
     <g id="text_24">
      <!-- octobre -->
      <g transform="translate(626.125206 376.874662)rotate(-60)scale(0.1 -0.1)">
       <use xlink:href="#STIXGeneral-Regular-6f"/>
       <use xlink:href="#STIXGeneral-Regular-63" x="49.999985"/>
       <use xlink:href="#STIXGeneral-Regular-74" x="94.399979"/>
       <use xlink:href="#STIXGeneral-Regular-6f" x="122.199966"/>
       <use xlink:href="#STIXGeneral-Regular-62" x="172.199951"/>
       <use xlink:href="#STIXGeneral-Regular-72" x="222.199936"/>
       <use xlink:href="#STIXGeneral-Regular-65" x="255.499924"/>
      </g>
     </g>
    </g>
    <g id="xtick_25">
     <g id="line2d_25">
      <g>
       <use xlink:href="#m7e7f12cadf" x="669.480038" y="340.487175" style="stroke: #000000; stroke-width: 0.8"/>
      </g>
     </g>
     <g id="text_25">
      <!-- novembre -->
      <g transform="translate(647.60518 385.534916)rotate(-60)scale(0.1 -0.1)">
       <use xlink:href="#STIXGeneral-Regular-6e"/>
       <use xlink:href="#STIXGeneral-Regular-6f" x="49.999985"/>
       <use xlink:href="#STIXGeneral-Regular-76" x="99.999969"/>
       <use xlink:href="#STIXGeneral-Regular-65" x="149.999954"/>
       <use xlink:href="#STIXGeneral-Regular-6d" x="194.399948"/>
       <use xlink:href="#STIXGeneral-Regular-62" x="272.199936"/>
       <use xlink:href="#STIXGeneral-Regular-72" x="322.199921"/>
       <use xlink:href="#STIXGeneral-Regular-65" x="355.499908"/>
      </g>
     </g>
    </g>
    <g id="xtick_26">
     <g id="line2d_26">
      <g>
       <use xlink:href="#m7e7f12cadf" x="695.960013" y="340.487175" style="stroke: #000000; stroke-width: 0.8"/>
      </g>
     </g>
     <g id="text_26">
      <!-- décembre -->
      <g transform="translate(674.644529 384.56605)rotate(-60)scale(0.1 -0.1)">
       <use xlink:href="#STIXGeneral-Regular-64"/>
       <use xlink:href="#STIXGeneral-Regular-e9" x="49.999985"/>
       <use xlink:href="#STIXGeneral-Regular-63" x="94.399979"/>
       <use xlink:href="#STIXGeneral-Regular-65" x="138.799973"/>
       <use xlink:href="#STIXGeneral-Regular-6d" x="183.199966"/>
       <use xlink:href="#STIXGeneral-Regular-62" x="260.999954"/>
       <use xlink:href="#STIXGeneral-Regular-72" x="310.999939"/>
       <use xlink:href="#STIXGeneral-Regular-65" x="344.299927"/>
      </g>
     </g>
    </g>
   </g>
   <g id="matplotlib.axis_4">
    <g id="ytick_1">
     <g id="line2d_27">
      <path d="M 60.440625 340.487175 
L 709.2 340.487175 
" clip-path="url(#p8650d31007)" style="fill: none; stroke: #eeeeee; stroke-width: 0.8; stroke-linecap: square"/>
     </g>
     <g id="line2d_28">
      <defs>
       <path id="md1a60a54e7" d="M 0 0 
L -3.5 0 
" style="stroke: #000000; stroke-width: 0.8"/>
      </defs>
      <g>
       <use xlink:href="#md1a60a54e7" x="60.440625" y="340.487175" style="stroke: #000000; stroke-width: 0.8"/>
      </g>
     </g>
     <g id="text_27">
      <!-- 0 -->
      <g transform="translate(48.440625 343.902019)scale(0.1 -0.1)">
       <use xlink:href="#STIXGeneral-Regular-30"/>
      </g>
     </g>
    </g>
    <g id="ytick_2">
     <g id="line2d_29">
      <path d="M 60.440625 274.443361 
L 709.2 274.443361 
" clip-path="url(#p8650d31007)" style="fill: none; stroke: #eeeeee; stroke-width: 0.8; stroke-linecap: square"/>
     </g>
     <g id="line2d_30">
      <g>
       <use xlink:href="#md1a60a54e7" x="60.440625" y="274.443361" style="stroke: #000000; stroke-width: 0.8"/>
      </g>
     </g>
     <g id="text_28">
      <!-- 10000 -->
      <g transform="translate(28.440625 277.858205)scale(0.1 -0.1)">
       <use xlink:href="#STIXGeneral-Regular-31"/>
       <use xlink:href="#STIXGeneral-Regular-30" x="49.999985"/>
       <use xlink:href="#STIXGeneral-Regular-30" x="99.999969"/>
       <use xlink:href="#STIXGeneral-Regular-30" x="149.999954"/>
       <use xlink:href="#STIXGeneral-Regular-30" x="199.999939"/>
      </g>
     </g>
    </g>
    <g id="ytick_3">
     <g id="line2d_31">
      <path d="M 60.440625 208.399547 
L 709.2 208.399547 
" clip-path="url(#p8650d31007)" style="fill: none; stroke: #eeeeee; stroke-width: 0.8; stroke-linecap: square"/>
     </g>
     <g id="line2d_32">
      <g>
       <use xlink:href="#md1a60a54e7" x="60.440625" y="208.399547" style="stroke: #000000; stroke-width: 0.8"/>
      </g>
     </g>
     <g id="text_29">
      <!-- 20000 -->
      <g transform="translate(28.440625 211.814391)scale(0.1 -0.1)">
       <use xlink:href="#STIXGeneral-Regular-32"/>
       <use xlink:href="#STIXGeneral-Regular-30" x="49.999985"/>
       <use xlink:href="#STIXGeneral-Regular-30" x="99.999969"/>
       <use xlink:href="#STIXGeneral-Regular-30" x="149.999954"/>
       <use xlink:href="#STIXGeneral-Regular-30" x="199.999939"/>
      </g>
     </g>
    </g>
    <g id="ytick_4">
     <g id="line2d_33">
      <path d="M 60.440625 142.355734 
L 709.2 142.355734 
" clip-path="url(#p8650d31007)" style="fill: none; stroke: #eeeeee; stroke-width: 0.8; stroke-linecap: square"/>
     </g>
     <g id="line2d_34">
      <g>
       <use xlink:href="#md1a60a54e7" x="60.440625" y="142.355734" style="stroke: #000000; stroke-width: 0.8"/>
      </g>
     </g>
     <g id="text_30">
      <!-- 30000 -->
      <g transform="translate(28.440625 145.770577)scale(0.1 -0.1)">
       <defs>
        <path id="STIXGeneral-Regular-33" d="M 390 3264 
L 288 3290 
Q 435 3770 748 4048 
Q 1062 4326 1542 4326 
Q 1990 4326 2265 4083 
Q 2541 3840 2541 3450 
Q 2541 2925 1946 2566 
Q 2298 2413 2477 2227 
Q 2758 1914 2758 1402 
Q 2758 890 2464 506 
Q 2246 211 1840 60 
Q 1434 -90 979 -90 
Q 262 -90 262 275 
Q 262 378 339 442 
Q 416 506 525 506 
Q 685 506 915 339 
Q 1197 141 1466 141 
Q 1818 141 2058 425 
Q 2298 710 2298 1120 
Q 2298 1856 1632 2048 
Q 1434 2112 979 2112 
L 979 2202 
Q 1338 2323 1517 2432 
Q 2035 2726 2035 3290 
Q 2035 3610 1852 3776 
Q 1670 3942 1344 3942 
Q 768 3942 390 3264 
z
" transform="scale(0.015625)"/>
       </defs>
       <use xlink:href="#STIXGeneral-Regular-33"/>
       <use xlink:href="#STIXGeneral-Regular-30" x="49.999985"/>
       <use xlink:href="#STIXGeneral-Regular-30" x="99.999969"/>
       <use xlink:href="#STIXGeneral-Regular-30" x="149.999954"/>
       <use xlink:href="#STIXGeneral-Regular-30" x="199.999939"/>
      </g>
     </g>
    </g>
    <g id="ytick_5">
     <g id="line2d_35">
      <path d="M 60.440625 76.31192 
L 709.2 76.31192 
" clip-path="url(#p8650d31007)" style="fill: none; stroke: #eeeeee; stroke-width: 0.8; stroke-linecap: square"/>
     </g>
     <g id="line2d_36">
      <g>
       <use xlink:href="#md1a60a54e7" x="60.440625" y="76.31192" style="stroke: #000000; stroke-width: 0.8"/>
      </g>
     </g>
     <g id="text_31">
      <!-- 40000 -->
      <g transform="translate(28.440625 79.726763)scale(0.1 -0.1)">
       <defs>
        <path id="STIXGeneral-Regular-34" d="M 3027 1069 
L 2368 1069 
L 2368 0 
L 1869 0 
L 1869 1069 
L 77 1069 
L 77 1478 
L 2086 4326 
L 2368 4326 
L 2368 1478 
L 3027 1478 
L 3027 1069 
z
M 1869 1478 
L 1869 3674 
L 333 1478 
L 1869 1478 
z
" transform="scale(0.015625)"/>
       </defs>
       <use xlink:href="#STIXGeneral-Regular-34"/>
       <use xlink:href="#STIXGeneral-Regular-30" x="49.999985"/>
       <use xlink:href="#STIXGeneral-Regular-30" x="99.999969"/>
       <use xlink:href="#STIXGeneral-Regular-30" x="149.999954"/>
       <use xlink:href="#STIXGeneral-Regular-30" x="199.999939"/>
      </g>
     </g>
    </g>
    <g id="text_32">
     <!-- Nombre de mariages -->
     <g transform="translate(18.260937 226.940463)rotate(-90)scale(0.1 -0.1)">
      <defs>
       <path id="STIXGeneral-Regular-4e" d="M 4525 4237 
L 4525 4115 
Q 4198 4083 4102 4000 
Q 4000 3910 3958 3756 
Q 3917 3603 3917 3245 
L 3917 -70 
L 3802 -70 
L 979 3443 
L 979 960 
Q 979 474 1088 323 
Q 1197 173 1574 122 
L 1574 0 
L 77 0 
L 77 122 
Q 474 166 586 310 
Q 698 454 698 960 
L 698 3776 
Q 531 3981 416 4048 
Q 301 4115 77 4115 
L 77 4237 
L 1165 4237 
L 3635 1146 
L 3635 3322 
Q 3635 3808 3514 3949 
Q 3437 4032 3344 4061 
Q 3251 4090 3008 4115 
L 3008 4237 
L 4525 4237 
z
" transform="scale(0.015625)"/>
       <path id="STIXGeneral-Regular-20" transform="scale(0.015625)"/>
       <path id="STIXGeneral-Regular-67" d="M 3008 2483 
L 2477 2483 
Q 2598 2208 2598 1946 
Q 2598 1453 2265 1203 
Q 1933 954 1600 954 
Q 1530 954 1357 973 
L 1235 986 
Q 1107 947 979 812 
Q 851 678 851 582 
Q 851 435 1350 410 
L 2176 371 
Q 2528 358 2739 172 
Q 2950 -13 2950 -314 
Q 2950 -685 2566 -986 
Q 2035 -1395 1286 -1395 
Q 826 -1395 502 -1212 
Q 179 -1030 179 -774 
Q 179 -595 320 -419 
Q 461 -243 806 6 
Q 602 102 534 172 
Q 467 243 467 346 
Q 467 531 762 787 
Q 909 915 1037 1043 
Q 717 1203 579 1401 
Q 442 1600 442 1901 
Q 442 2336 752 2640 
Q 1062 2944 1510 2944 
Q 1766 2944 2022 2848 
L 2163 2797 
Q 2349 2733 2515 2733 
L 3008 2733 
L 3008 2483 
z
M 973 2163 
L 973 2144 
Q 973 1683 1155 1398 
Q 1338 1114 1632 1114 
Q 1850 1114 1978 1270 
Q 2106 1427 2106 1690 
Q 2106 2112 1914 2464 
Q 1754 2765 1446 2765 
Q 1222 2765 1097 2605 
Q 973 2445 973 2163 
z
M 2771 -410 
Q 2771 -230 2595 -163 
Q 2419 -96 1978 -96 
Q 1344 -96 941 -13 
Q 749 -243 688 -348 
Q 627 -454 627 -563 
Q 627 -774 880 -902 
Q 1133 -1030 1555 -1030 
Q 2099 -1030 2435 -860 
Q 2771 -691 2771 -410 
z
" transform="scale(0.015625)"/>
      </defs>
      <use xlink:href="#STIXGeneral-Regular-4e"/>
      <use xlink:href="#STIXGeneral-Regular-6f" x="72.199982"/>
      <use xlink:href="#STIXGeneral-Regular-6d" x="122.199966"/>
      <use xlink:href="#STIXGeneral-Regular-62" x="199.999954"/>
      <use xlink:href="#STIXGeneral-Regular-72" x="249.999939"/>
      <use xlink:href="#STIXGeneral-Regular-65" x="283.299927"/>
      <use xlink:href="#STIXGeneral-Regular-20" x="327.699921"/>
      <use xlink:href="#STIXGeneral-Regular-64" x="352.699905"/>
      <use xlink:href="#STIXGeneral-Regular-65" x="402.69989"/>
      <use xlink:href="#STIXGeneral-Regular-20" x="447.099884"/>
      <use xlink:href="#STIXGeneral-Regular-6d" x="472.099869"/>
      <use xlink:href="#STIXGeneral-Regular-61" x="549.899857"/>
      <use xlink:href="#STIXGeneral-Regular-72" x="594.29985"/>
      <use xlink:href="#STIXGeneral-Regular-69" x="627.599838"/>
      <use xlink:href="#STIXGeneral-Regular-61" x="655.399826"/>
      <use xlink:href="#STIXGeneral-Regular-67" x="699.79982"/>
      <use xlink:href="#STIXGeneral-Regular-65" x="749.799805"/>
      <use xlink:href="#STIXGeneral-Regular-73" x="794.199799"/>
     </g>
    </g>
   </g>
   <g id="line2d_37">
    <path d="M 86.920599 299.249418 
L 113.400574 292.87619 
L 139.880548 270.744908 
L 166.360523 236.336081 
L 192.840497 183.560469 
L 219.320472 83.847519 
L 245.800446 137.69304 
L 272.280421 137.111855 
L 298.760395 118.606378 
L 325.24037 233.416944 
L 351.720344 281.226061 
L 378.200319 260.897775 
L 404.680293 301.613786 
L 431.160268 295.101866 
L 457.640242 276.669038 
L 484.120217 235.292588 
L 510.600191 219.402447 
L 537.080166 62.396488 
L 563.56014 140.176288 
L 590.040115 134.615399 
L 616.520089 151.582054 
L 643.000064 232.848967 
L 669.480038 277.600255 
L 695.960013 274.278252 
" clip-path="url(#p8650d31007)" style="fill: none; stroke: #003f5c; stroke-width: 1.5; stroke-linecap: square"/>
    <defs>
     <path id="mab63b85030" d="M 0 3 
C 0.795609 3 1.55874 2.683901 2.12132 2.12132 
C 2.683901 1.55874 3 0.795609 3 0 
C 3 -0.795609 2.683901 -1.55874 2.12132 -2.12132 
C 1.55874 -2.683901 0.795609 -3 0 -3 
C -0.795609 -3 -1.55874 -2.683901 -2.12132 -2.12132 
C -2.683901 -1.55874 -3 -0.795609 -3 0 
C -3 0.795609 -2.683901 1.55874 -2.12132 2.12132 
C -1.55874 2.683901 -0.795609 3 0 3 
z
" style="stroke: #003f5c"/>
    </defs>
    <g clip-path="url(#p8650d31007)">
     <use xlink:href="#mab63b85030" x="86.920599" y="299.249418" style="fill: #ffffff; stroke: #003f5c"/>
     <use xlink:href="#mab63b85030" x="113.400574" y="292.87619" style="fill: #ffffff; stroke: #003f5c"/>
     <use xlink:href="#mab63b85030" x="139.880548" y="270.744908" style="fill: #ffffff; stroke: #003f5c"/>
     <use xlink:href="#mab63b85030" x="166.360523" y="236.336081" style="fill: #ffffff; stroke: #003f5c"/>
     <use xlink:href="#mab63b85030" x="192.840497" y="183.560469" style="fill: #ffffff; stroke: #003f5c"/>
     <use xlink:href="#mab63b85030" x="219.320472" y="83.847519" style="fill: #ffffff; stroke: #003f5c"/>
     <use xlink:href="#mab63b85030" x="245.800446" y="137.69304" style="fill: #ffffff; stroke: #003f5c"/>
     <use xlink:href="#mab63b85030" x="272.280421" y="137.111855" style="fill: #ffffff; stroke: #003f5c"/>
     <use xlink:href="#mab63b85030" x="298.760395" y="118.606378" style="fill: #ffffff; stroke: #003f5c"/>
     <use xlink:href="#mab63b85030" x="325.24037" y="233.416944" style="fill: #ffffff; stroke: #003f5c"/>
     <use xlink:href="#mab63b85030" x="351.720344" y="281.226061" style="fill: #ffffff; stroke: #003f5c"/>
     <use xlink:href="#mab63b85030" x="378.200319" y="260.897775" style="fill: #ffffff; stroke: #003f5c"/>
     <use xlink:href="#mab63b85030" x="404.680293" y="301.613786" style="fill: #ffffff; stroke: #003f5c"/>
     <use xlink:href="#mab63b85030" x="431.160268" y="295.101866" style="fill: #ffffff; stroke: #003f5c"/>
     <use xlink:href="#mab63b85030" x="457.640242" y="276.669038" style="fill: #ffffff; stroke: #003f5c"/>
     <use xlink:href="#mab63b85030" x="484.120217" y="235.292588" style="fill: #ffffff; stroke: #003f5c"/>
     <use xlink:href="#mab63b85030" x="510.600191" y="219.402447" style="fill: #ffffff; stroke: #003f5c"/>
     <use xlink:href="#mab63b85030" x="537.080166" y="62.396488" style="fill: #ffffff; stroke: #003f5c"/>
     <use xlink:href="#mab63b85030" x="563.56014" y="140.176288" style="fill: #ffffff; stroke: #003f5c"/>
     <use xlink:href="#mab63b85030" x="590.040115" y="134.615399" style="fill: #ffffff; stroke: #003f5c"/>
     <use xlink:href="#mab63b85030" x="616.520089" y="151.582054" style="fill: #ffffff; stroke: #003f5c"/>
     <use xlink:href="#mab63b85030" x="643.000064" y="232.848967" style="fill: #ffffff; stroke: #003f5c"/>
     <use xlink:href="#mab63b85030" x="669.480038" y="277.600255" style="fill: #ffffff; stroke: #003f5c"/>
     <use xlink:href="#mab63b85030" x="695.960013" y="274.278252" style="fill: #ffffff; stroke: #003f5c"/>
    </g>
   </g>
   <g id="line2d_38">
    <path d="M 219.320472 340.487175 
L 219.320472 83.847519 
" clip-path="url(#p8650d31007)" style="fill: none; stroke-dasharray: 2.59,1.12; stroke-dashoffset: 0; stroke: #ffa600; stroke-width: 0.7"/>
   </g>
   <g id="line2d_39">
    <path d="M 537.080166 340.487175 
L 537.080166 62.396488 
" clip-path="url(#p8650d31007)" style="fill: none; stroke-dasharray: 2.59,1.12; stroke-dashoffset: 0; stroke: #ffa600; stroke-width: 0.7"/>
   </g>
   <g id="line2d_40">
    <path d="M 60.440625 83.847519 
L 219.320472 83.847519 
" clip-path="url(#p8650d31007)" style="fill: none; stroke-dasharray: 2.59,1.12; stroke-dashoffset: 0; stroke: #ffa600; stroke-width: 0.7"/>
   </g>
   <g id="line2d_41">
    <path d="M 60.440625 62.396488 
L 537.080166 62.396488 
" clip-path="url(#p8650d31007)" style="fill: none; stroke-dasharray: 2.59,1.12; stroke-dashoffset: 0; stroke: #ffa600; stroke-width: 0.7"/>
   </g>
   <g id="patch_5">
    <path d="M 60.440625 340.487175 
L 60.440625 30.08125 
" style="fill: none; stroke: #000000; stroke-width: 0.8; stroke-linejoin: miter; stroke-linecap: square"/>
   </g>
   <g id="patch_6">
    <path d="M 709.2 340.487175 
L 709.2 30.08125 
" style="fill: none; stroke: #000000; stroke-width: 0.8; stroke-linejoin: miter; stroke-linecap: square"/>
   </g>
   <g id="patch_7">
    <path d="M 60.440625 340.487175 
L 709.2 340.487175 
" style="fill: none; stroke: #000000; stroke-width: 0.8; stroke-linejoin: miter; stroke-linecap: square"/>
   </g>
   <g id="patch_8">
    <path d="M 60.440625 30.08125 
L 709.2 30.08125 
" style="fill: none; stroke: #000000; stroke-width: 0.8; stroke-linejoin: miter; stroke-linecap: square"/>
   </g>
   <g id="text_33">
    <!-- Nombre de mariages par mois en France entre Janvier 2018 et Décembre 2019 -->
    <g transform="translate(196.295625 20.08125)scale(0.12 -0.12)">
     <defs>
      <path id="STIXGeneral-Regular-46" d="M 3494 3322 
L 3334 3322 
Q 3264 3757 3094 3875 
Q 2925 3994 2349 3994 
L 1504 3994 
Q 1370 3994 1328 3946 
Q 1286 3898 1286 3744 
L 1286 2355 
L 2195 2355 
Q 2598 2355 2736 2470 
Q 2874 2586 2918 2963 
L 3066 2963 
L 3066 1472 
L 2918 1472 
Q 2880 1862 2745 1977 
Q 2611 2093 2195 2093 
L 1286 2093 
L 1286 717 
Q 1286 352 1392 246 
Q 1498 141 1869 122 
L 1869 0 
L 70 0 
L 70 122 
Q 435 147 534 259 
Q 634 371 634 787 
L 634 3526 
Q 634 3878 538 3984 
Q 442 4090 77 4115 
L 77 4237 
L 3462 4237 
L 3494 3322 
z
" transform="scale(0.015625)"/>
      <path id="STIXGeneral-Regular-4a" d="M 2266 4237 
L 2266 4115 
Q 1875 4083 1776 3984 
Q 1677 3885 1677 3514 
L 1677 1184 
Q 1677 -90 608 -90 
Q 314 -90 138 32 
Q -38 154 -38 371 
Q -38 499 54 601 
Q 147 704 275 704 
Q 486 704 589 435 
Q 602 403 621 348 
Q 640 294 649 265 
Q 659 237 678 208 
Q 698 179 723 166 
Q 749 154 787 154 
Q 928 154 976 253 
Q 1024 352 1024 602 
L 1024 3520 
Q 1024 3898 928 3990 
Q 832 4083 429 4115 
L 429 4237 
L 2266 4237 
z
" transform="scale(0.015625)"/>
      <path id="STIXGeneral-Regular-44" d="M 102 4237 
L 1830 4237 
Q 3078 4237 3750 3654 
Q 4384 3110 4384 2138 
Q 4384 966 3514 410 
Q 2880 0 1901 0 
L 102 0 
L 102 122 
Q 474 147 570 252 
Q 666 358 666 736 
L 666 3520 
Q 666 3891 570 3990 
Q 474 4090 102 4115 
L 102 4237 
z
M 1318 3731 
L 1318 538 
Q 1318 365 1379 301 
Q 1440 237 1626 237 
Q 2125 237 2432 307 
Q 2739 378 3021 570 
Q 3686 1018 3686 2099 
Q 3686 3027 3078 3558 
Q 2803 3802 2476 3901 
Q 2150 4000 1658 4000 
Q 1472 4000 1395 3942 
Q 1318 3885 1318 3731 
z
" transform="scale(0.015625)"/>
     </defs>
     <use xlink:href="#STIXGeneral-Regular-4e"/>
     <use xlink:href="#STIXGeneral-Regular-6f" x="72.199982"/>
     <use xlink:href="#STIXGeneral-Regular-6d" x="122.199966"/>
     <use xlink:href="#STIXGeneral-Regular-62" x="199.999954"/>
     <use xlink:href="#STIXGeneral-Regular-72" x="249.999939"/>
     <use xlink:href="#STIXGeneral-Regular-65" x="283.299927"/>
     <use xlink:href="#STIXGeneral-Regular-20" x="327.699921"/>
     <use xlink:href="#STIXGeneral-Regular-64" x="352.699905"/>
     <use xlink:href="#STIXGeneral-Regular-65" x="402.69989"/>
     <use xlink:href="#STIXGeneral-Regular-20" x="447.099884"/>
     <use xlink:href="#STIXGeneral-Regular-6d" x="472.099869"/>
     <use xlink:href="#STIXGeneral-Regular-61" x="549.899857"/>
     <use xlink:href="#STIXGeneral-Regular-72" x="594.29985"/>
     <use xlink:href="#STIXGeneral-Regular-69" x="627.599838"/>
     <use xlink:href="#STIXGeneral-Regular-61" x="655.399826"/>
     <use xlink:href="#STIXGeneral-Regular-67" x="699.79982"/>
     <use xlink:href="#STIXGeneral-Regular-65" x="749.799805"/>
     <use xlink:href="#STIXGeneral-Regular-73" x="794.199799"/>
     <use xlink:href="#STIXGeneral-Regular-20" x="833.099792"/>
     <use xlink:href="#STIXGeneral-Regular-70" x="858.099777"/>
     <use xlink:href="#STIXGeneral-Regular-61" x="908.099762"/>
     <use xlink:href="#STIXGeneral-Regular-72" x="952.499756"/>
     <use xlink:href="#STIXGeneral-Regular-20" x="985.799744"/>
     <use xlink:href="#STIXGeneral-Regular-6d" x="1010.799728"/>
     <use xlink:href="#STIXGeneral-Regular-6f" x="1088.599716"/>
     <use xlink:href="#STIXGeneral-Regular-69" x="1138.599701"/>
     <use xlink:href="#STIXGeneral-Regular-73" x="1166.399689"/>
     <use xlink:href="#STIXGeneral-Regular-20" x="1205.299683"/>
     <use xlink:href="#STIXGeneral-Regular-65" x="1230.299667"/>
     <use xlink:href="#STIXGeneral-Regular-6e" x="1274.699661"/>
     <use xlink:href="#STIXGeneral-Regular-20" x="1324.699646"/>
     <use xlink:href="#STIXGeneral-Regular-46" x="1349.699631"/>
     <use xlink:href="#STIXGeneral-Regular-72" x="1405.299622"/>
     <use xlink:href="#STIXGeneral-Regular-61" x="1438.599609"/>
     <use xlink:href="#STIXGeneral-Regular-6e" x="1482.999603"/>
     <use xlink:href="#STIXGeneral-Regular-63" x="1532.999588"/>
     <use xlink:href="#STIXGeneral-Regular-65" x="1577.399582"/>
     <use xlink:href="#STIXGeneral-Regular-20" x="1621.799576"/>
     <use xlink:href="#STIXGeneral-Regular-65" x="1646.799561"/>
     <use xlink:href="#STIXGeneral-Regular-6e" x="1691.199554"/>
     <use xlink:href="#STIXGeneral-Regular-74" x="1741.199539"/>
     <use xlink:href="#STIXGeneral-Regular-72" x="1768.999527"/>
     <use xlink:href="#STIXGeneral-Regular-65" x="1802.299515"/>
     <use xlink:href="#STIXGeneral-Regular-20" x="1846.699509"/>
     <use xlink:href="#STIXGeneral-Regular-4a" x="1871.699493"/>
     <use xlink:href="#STIXGeneral-Regular-61" x="1908.999481"/>
     <use xlink:href="#STIXGeneral-Regular-6e" x="1953.399475"/>
     <use xlink:href="#STIXGeneral-Regular-76" x="2003.39946"/>
     <use xlink:href="#STIXGeneral-Regular-69" x="2053.399445"/>
     <use xlink:href="#STIXGeneral-Regular-65" x="2081.199432"/>
     <use xlink:href="#STIXGeneral-Regular-72" x="2125.599426"/>
     <use xlink:href="#STIXGeneral-Regular-20" x="2158.899414"/>
     <use xlink:href="#STIXGeneral-Regular-32" x="2183.899399"/>
     <use xlink:href="#STIXGeneral-Regular-30" x="2233.899384"/>
     <use xlink:href="#STIXGeneral-Regular-31" x="2283.899368"/>
     <use xlink:href="#STIXGeneral-Regular-38" x="2333.899353"/>
     <use xlink:href="#STIXGeneral-Regular-20" x="2383.899338"/>
     <use xlink:href="#STIXGeneral-Regular-65" x="2408.899323"/>
     <use xlink:href="#STIXGeneral-Regular-74" x="2453.299316"/>
     <use xlink:href="#STIXGeneral-Regular-20" x="2481.099304"/>
     <use xlink:href="#STIXGeneral-Regular-44" x="2506.099289"/>
     <use xlink:href="#STIXGeneral-Regular-e9" x="2578.299271"/>
     <use xlink:href="#STIXGeneral-Regular-63" x="2622.699265"/>
     <use xlink:href="#STIXGeneral-Regular-65" x="2667.099258"/>
     <use xlink:href="#STIXGeneral-Regular-6d" x="2711.499252"/>
     <use xlink:href="#STIXGeneral-Regular-62" x="2789.29924"/>
     <use xlink:href="#STIXGeneral-Regular-72" x="2839.299225"/>
     <use xlink:href="#STIXGeneral-Regular-65" x="2872.599213"/>
     <use xlink:href="#STIXGeneral-Regular-20" x="2916.999207"/>
     <use xlink:href="#STIXGeneral-Regular-32" x="2941.999191"/>
     <use xlink:href="#STIXGeneral-Regular-30" x="2991.999176"/>
     <use xlink:href="#STIXGeneral-Regular-31" x="3041.999161"/>
     <use xlink:href="#STIXGeneral-Regular-39" x="3091.999146"/>
    </g>
   </g>
   <g id="legend_1">
    <g id="line2d_42">
     <path d="M 587.217188 42.58125 
L 597.217188 42.58125 
L 607.217188 42.58125 
" style="fill: none; stroke: #003f5c; stroke-width: 1.5; stroke-linecap: square"/>
     <g>
      <use xlink:href="#mab63b85030" x="597.217188" y="42.58125" style="fill: #ffffff; stroke: #003f5c"/>
     </g>
    </g>
    <g id="text_34">
     <!-- nombre des mariages -->
     <g transform="translate(615.217188 46.08125)scale(0.1 -0.1)">
      <use xlink:href="#STIXGeneral-Regular-6e"/>
      <use xlink:href="#STIXGeneral-Regular-6f" x="49.999985"/>
      <use xlink:href="#STIXGeneral-Regular-6d" x="99.999969"/>
      <use xlink:href="#STIXGeneral-Regular-62" x="177.799957"/>
      <use xlink:href="#STIXGeneral-Regular-72" x="227.799942"/>
      <use xlink:href="#STIXGeneral-Regular-65" x="261.09993"/>
      <use xlink:href="#STIXGeneral-Regular-20" x="305.499924"/>
      <use xlink:href="#STIXGeneral-Regular-64" x="330.499908"/>
      <use xlink:href="#STIXGeneral-Regular-65" x="380.499893"/>
      <use xlink:href="#STIXGeneral-Regular-73" x="424.899887"/>
      <use xlink:href="#STIXGeneral-Regular-20" x="463.799881"/>
      <use xlink:href="#STIXGeneral-Regular-6d" x="488.799866"/>
      <use xlink:href="#STIXGeneral-Regular-61" x="566.599854"/>
      <use xlink:href="#STIXGeneral-Regular-72" x="610.999847"/>
      <use xlink:href="#STIXGeneral-Regular-69" x="644.299835"/>
      <use xlink:href="#STIXGeneral-Regular-61" x="672.099823"/>
      <use xlink:href="#STIXGeneral-Regular-67" x="716.499817"/>
      <use xlink:href="#STIXGeneral-Regular-65" x="766.499802"/>
      <use xlink:href="#STIXGeneral-Regular-73" x="810.899796"/>
     </g>
    </g>
    <g id="line2d_43">
     <path d="M 587.217188 56.760938 
L 597.217188 56.760938 
L 607.217188 56.760938 
" style="fill: none; stroke-dasharray: 2.59,1.12; stroke-dashoffset: 0; stroke: #ffa600; stroke-width: 0.7"/>
    </g>
    <g id="text_35">
     <!-- highest value in year -->
     <g transform="translate(615.217188 60.260938)scale(0.1 -0.1)">
      <defs>
       <path id="STIXGeneral-Regular-68" d="M 3117 0 
L 1760 0 
L 1760 96 
Q 2042 128 2118 224 
Q 2195 320 2195 653 
L 2195 1920 
Q 2195 2598 1722 2598 
Q 1530 2598 1370 2508 
Q 1210 2419 1005 2195 
L 1005 653 
Q 1005 320 1081 224 
Q 1158 128 1440 96 
L 1440 0 
L 58 0 
L 58 96 
Q 333 134 400 224 
Q 467 314 467 653 
L 467 3667 
Q 467 3872 406 3933 
Q 346 3994 141 3994 
Q 83 3994 64 3987 
L 64 4090 
L 237 4141 
Q 730 4288 973 4371 
L 1005 4352 
L 1005 2406 
Q 1229 2694 1446 2819 
Q 1664 2944 1946 2944 
Q 2733 2944 2733 1926 
L 2733 653 
Q 2733 320 2793 233 
Q 2854 147 3117 96 
L 3117 0 
z
" transform="scale(0.015625)"/>
       <path id="STIXGeneral-Regular-79" d="M 3040 2880 
L 3040 2784 
Q 2925 2771 2854 2700 
Q 2784 2630 2720 2458 
L 1760 -160 
Q 1510 -838 1257 -1116 
Q 1005 -1395 640 -1395 
Q 435 -1395 313 -1289 
Q 192 -1184 192 -1024 
Q 192 -902 272 -816 
Q 352 -730 467 -730 
Q 653 -730 800 -813 
Q 883 -858 966 -858 
Q 1101 -858 1286 -576 
Q 1376 -448 1459 -211 
Q 1542 26 1542 115 
Q 1542 198 1274 762 
L 429 2566 
Q 346 2752 90 2790 
L 90 2880 
L 1402 2880 
L 1402 2784 
Q 1197 2778 1117 2739 
Q 1037 2701 1037 2611 
Q 1037 2541 1120 2349 
L 1837 749 
L 2458 2515 
Q 2483 2573 2483 2630 
Q 2483 2784 2189 2784 
L 2189 2880 
L 3040 2880 
z
" transform="scale(0.015625)"/>
      </defs>
      <use xlink:href="#STIXGeneral-Regular-68"/>
      <use xlink:href="#STIXGeneral-Regular-69" x="49.999985"/>
      <use xlink:href="#STIXGeneral-Regular-67" x="77.799973"/>
      <use xlink:href="#STIXGeneral-Regular-68" x="127.799957"/>
      <use xlink:href="#STIXGeneral-Regular-65" x="177.799942"/>
      <use xlink:href="#STIXGeneral-Regular-73" x="222.199936"/>
      <use xlink:href="#STIXGeneral-Regular-74" x="261.09993"/>
      <use xlink:href="#STIXGeneral-Regular-20" x="288.899918"/>
      <use xlink:href="#STIXGeneral-Regular-76" x="313.899902"/>
      <use xlink:href="#STIXGeneral-Regular-61" x="363.899887"/>
      <use xlink:href="#STIXGeneral-Regular-6c" x="408.299881"/>
      <use xlink:href="#STIXGeneral-Regular-75" x="436.099869"/>
      <use xlink:href="#STIXGeneral-Regular-65" x="486.099854"/>
      <use xlink:href="#STIXGeneral-Regular-20" x="530.499847"/>
      <use xlink:href="#STIXGeneral-Regular-69" x="555.499832"/>
      <use xlink:href="#STIXGeneral-Regular-6e" x="583.29982"/>
      <use xlink:href="#STIXGeneral-Regular-20" x="633.299805"/>
      <use xlink:href="#STIXGeneral-Regular-79" x="658.299789"/>
      <use xlink:href="#STIXGeneral-Regular-65" x="708.299774"/>
      <use xlink:href="#STIXGeneral-Regular-61" x="752.699768"/>
      <use xlink:href="#STIXGeneral-Regular-72" x="797.099762"/>
     </g>
    </g>
   </g>
  </g>
 </g>
 <defs>
  <clipPath id="p8650d31007">
   <rect x="60.440625" y="30.08125" width="648.759375" height="310.405925"/>
  </clipPath>
 </defs>
</svg>
